<?xml version="1.0" encoding="utf-8"?>
<!-- Generator: Adobe Illustrator 13.0.1, SVG Export Plug-In . SVG Version: 6.00 Build 14948)  -->
<!DOCTYPE svg PUBLIC "-//W3C//DTD SVG 1.1//EN" "http://www.w3.org/Graphics/SVG/1.1/DTD/svg11.dtd" [
	<!ENTITY ns_flows "http://ns.adobe.com/Flows/1.0/">
	<!ENTITY ns_extend "http://ns.adobe.com/Extensibility/1.0/">
	<!ENTITY ns_ai "http://ns.adobe.com/AdobeIllustrator/10.0/">
	<!ENTITY ns_graphs "http://ns.adobe.com/Graphs/1.0/">
]>
<svg version="1.1"
	 id="svg9252" xmlns:x="&ns_extend;" xmlns:i="&ns_ai;" xmlns:graph="&ns_graphs;" xmlns:svg="http://www.w3.org/2000/svg"
	 xmlns="http://www.w3.org/2000/svg" xmlns:xlink="http://www.w3.org/1999/xlink" xmlns:a="http://ns.adobe.com/AdobeSVGViewerExtensions/3.0/"
	 x="0px" y="0px" width="800px" height="1000px" viewBox="0 0 800 1000" enable-background="new 0 0 800 1000" xml:space="preserve"
	>
<g id="Layer_1">
	
		<radialGradient id="path9087_1_" cx="385.6995" cy="117.3005" r="594.9453" gradientTransform="matrix(1 0 0 1 -71.2002 157.1992)" gradientUnits="userSpaceOnUse">
		<stop  offset="0" style="stop-color:#CB0A1D"/>
		<stop  offset="1" style="stop-color:#910715"/>
		<a:midPointStop  offset="0" style="stop-color:#CB0A1D"/>
		<a:midPointStop  offset="0.5" style="stop-color:#CB0A1D"/>
		<a:midPointStop  offset="1" style="stop-color:#910715"/>
	</radialGradient>
	<path id="path9087" fill="url(#path9087_1_)" d="M0,0h800v619.049c0,0-10.715,380.951-400.096,380.951
		C10.527,1000,0,619.049,0,619.049V0z"/>
	
		<linearGradient id="path9089_1_" gradientUnits="userSpaceOnUse" x1="317.0876" y1="-98.1467" x2="397.825" y2="-98.1467" gradientTransform="matrix(1 0 0 1 -71.2002 157.1992)">
		<stop  offset="0" style="stop-color:#F9F3F4"/>
		<stop  offset="1" style="stop-color:#999999"/>
		<a:midPointStop  offset="0" style="stop-color:#F9F3F4"/>
		<a:midPointStop  offset="0.5" style="stop-color:#F9F3F4"/>
		<a:midPointStop  offset="1" style="stop-color:#999999"/>
	</linearGradient>
	<path id="path9089" fill="url(#path9089_1_)" d="M276.715,49.255c-12.981-6.227-22.124-20.752-20.063-23.421
		c2.063-2.668,23.602,9.488,23.602,20.162c0,10.673,11.211,13.341,10.914,0c-0.298-13.342,13.863-26.089,17.696-23.72
		c3.834,2.369-2.652,22.531-15.044,26.683c-3.834,2.373-3.834,12.748,2.361,8.602c6.193-4.148,31.856,8.3,30.382,13.046
		s-26.549,0.296-32.15-9.488c-7.079-6.82-10.913-1.481-5.9,4.742c5.013,6.227,6.488,29.646,0.294,30.241
		c-6.195,0.594-10.032-18.385-5.017-29.354c5.017-10.969,0-11.563-7.373-3.853c-7.965,7.709-28.318,15.714-30.382,11.563
		c-2.064-4.15,17.99-17.493,28.316-15.715C284.679,60.522,276.715,49.255,276.715,49.255z"/>
	
		<linearGradient id="path9091_1_" gradientUnits="userSpaceOnUse" x1="286.6848" y1="707.5369" x2="686.2434" y2="707.5369" gradientTransform="matrix(1 0 0 1 -71.2002 157.1992)">
		<stop  offset="0" style="stop-color:#F9F3F4"/>
		<stop  offset="1" style="stop-color:#999999"/>
		<a:midPointStop  offset="0" style="stop-color:#F9F3F4"/>
		<a:midPointStop  offset="0.5" style="stop-color:#F9F3F4"/>
		<a:midPointStop  offset="1" style="stop-color:#999999"/>
	</linearGradient>
	<path id="path9091" fill="url(#path9091_1_)" d="M232.301,810.275c0,0,170.354,103.619,334.068,21.346
		c12.832,16.013,24.779,26.238,48.674,34.244c-85.397,71.601-274.778,75.604-399.559-15.563
		C218.142,821.392,232.301,810.275,232.301,810.275z"/>
	
		<linearGradient id="path9093_1_" gradientUnits="userSpaceOnUse" x1="157.5417" y1="641.8123" x2="300.1047" y2="641.8123" gradientTransform="matrix(1 0 0 1 -71.2002 157.1992)">
		<stop  offset="0" style="stop-color:#FECC0B"/>
		<stop  offset="1" style="stop-color:#A27718"/>
		<a:midPointStop  offset="0" style="stop-color:#FECC0B"/>
		<a:midPointStop  offset="0.5" style="stop-color:#FECC0B"/>
		<a:midPointStop  offset="1" style="stop-color:#A27718"/>
	</linearGradient>
	<path id="path9093" fill="url(#path9093_1_)" d="M104.425,808.797c-6.195-0.301-29.498-1.775-11.211-27.867
		c1.477-7.564,5.016-18.675,7.671-21.349c2.655-2.672,18.142,2.665,35.398-11.268c2.212,2.814-5.901,13.046-7.673,14.825
		c-1.771,1.779,7.079-1.782,100.294,45.063c-0.147,9.189-4.572,26.089-16.521,41.508c-35.396-26.979-35.396-34.984-94.98-59.297
		C108.85,786.26,105.31,796.489,104.425,808.797z"/>
	
		<linearGradient id="path9095_1_" gradientUnits="userSpaceOnUse" x1="208.1218" y1="89.7361" x2="378.0818" y2="89.7361" gradientTransform="matrix(1 0 0 1 -71.2002 157.1992)">
		<stop  offset="0" style="stop-color:#F9F3F4"/>
		<stop  offset="1" style="stop-color:#999999"/>
		<a:midPointStop  offset="0" style="stop-color:#F9F3F4"/>
		<a:midPointStop  offset="0.5" style="stop-color:#F9F3F4"/>
		<a:midPointStop  offset="1" style="stop-color:#999999"/>
	</linearGradient>
	<path id="path9095" fill="url(#path9095_1_)" d="M257.816,400.246c-15.338-8.895-106.785-85.386-106.785-85.386l-0.588-122.148
		c0,0-8.259-13.042-10.026-17.192c-1.771-4.151-5.312-24.312-2.361-28.462c2.95-4.151,48.967-31.431,50.736-34.395
		c1.769-2.964-1.181-17.789,0.591-18.974c1.771-1.187,20.646,14.229,25.37,18.383c4.723,4.153,4.131,36.763,1.771,37.95
		c-2.359,1.187-17.698,29.646-24.188,35.578c-6.488,5.931,14.747,96.646,16.518,101.98c1.771,5.337,95.574,53.366,97.936,67.599
		C309.147,369.411,266.077,399.651,257.816,400.246z"/>
	
		<linearGradient id="path9097_1_" gradientUnits="userSpaceOnUse" x1="297.9919" y1="-23.0222" x2="756.6721" y2="-23.0222" gradientTransform="matrix(1 0 0 1 -71.2002 157.1992)">
		<stop  offset="0" style="stop-color:#F9F3F4"/>
		<stop  offset="1" style="stop-color:#999999"/>
		<a:midPointStop  offset="0" style="stop-color:#F9F3F4"/>
		<a:midPointStop  offset="0.5" style="stop-color:#F9F3F4"/>
		<a:midPointStop  offset="1" style="stop-color:#999999"/>
	</linearGradient>
	<path id="path9097" fill="url(#path9097_1_)" d="M236.283,106.732c3.21-3.913,23.009,8.449,32.301,8.449
		s377.434,0.443,383.628,0.443c6.192,0,31.416,12.452,33.186,13.786c1.771,1.334-28.761,14.676-33.186,14.676
		c-4.427,0-380.088,8.007-384.07,9.341c-3.98,1.334-27.876,9.782-30.531,8.895C234.956,161.433,215.487,132.081,236.283,106.732z"/>
	
		<linearGradient id="path9099_1_" gradientUnits="userSpaceOnUse" x1="172.0432" y1="-23.2737" x2="205.2708" y2="-23.2737" gradientTransform="matrix(1 0 0 1 -71.2002 157.1992)">
		<stop  offset="0" style="stop-color:#FECC0B"/>
		<stop  offset="1" style="stop-color:#A27718"/>
		<a:midPointStop  offset="0" style="stop-color:#FECC0B"/>
		<a:midPointStop  offset="0.5" style="stop-color:#FECC0B"/>
		<a:midPointStop  offset="1" style="stop-color:#A27718"/>
	</linearGradient>
	<path id="path9099" fill="url(#path9099_1_)" d="M134.071,120.963c-11.504-9.781-26.104-10.673-31.416,1.779
		c-5.31,12.452,0,35.133,30.091,31.13"/>
	
		<linearGradient id="path9101_1_" gradientUnits="userSpaceOnUse" x1="618.5344" y1="133.9294" x2="789.7883" y2="133.9294" gradientTransform="matrix(1 0 0 1 -71.2002 157.1992)">
		<stop  offset="0" style="stop-color:#FECC0B"/>
		<stop  offset="1" style="stop-color:#A27718"/>
		<a:midPointStop  offset="0" style="stop-color:#FECC0B"/>
		<a:midPointStop  offset="0.5" style="stop-color:#FECC0B"/>
		<a:midPointStop  offset="1" style="stop-color:#A27718"/>
	</linearGradient>
	<path id="path9101" fill="url(#path9101_1_)" d="M564.485,376.206c1.508-26.964,18.553-34.966,61.826-57.415
		c61.3-31.799,100.51-90.52,39.176-130.229c3.54,7.115,7.08,17.788-15.338,18.974c0-8.301,5.606-21.939-15.338-24.904
		c6.488,7.709,19.171,31.132-12.98,24.904c2.948-11.268,0.299-16.31-10.618-20.162c3.834,6.228,10.026,23.721-14.159,22.531
		c-2.361-6.521,5.31-5.632-7.079-14.231c-30.976,26.091-39.286,76.367,42.126,115.504c-5.313,3.559-21.238,11.393-21.238,11.393
		s-59.826-21.347-63.366-79.455s51.919-86.574,84.956-87.759c33.037-1.187,86.137,32.02,86.137,81.828
		c0,61.073-73.745,80.348-90.854,124.521c-1.771,5.636,2.067,12.452,3.54,14.23c-3.246,1.482-5.056,3.457-7.08,5.932
		c-3.066,3.503,6.492,41.508-17.699,45.065c2.651-20.457,10.032-26.39-3.539-47.438c-1.183,9.784,11.5,41.804-14.158,46.251
		c4.422-18.084,0.882-30.241-7.079-40.32c-2.658,13.938,9.438,44.77-11.804,36.765C576.4,390.757,563.855,387.434,564.485,376.206z"
		/>
	
		<linearGradient id="path9103_1_" gradientUnits="userSpaceOnUse" x1="200.3088" y1="496.2014" x2="601.3362" y2="496.2014" gradientTransform="matrix(1 0 0 1 -71.2002 157.1992)">
		<stop  offset="0" style="stop-color:#FECC0B"/>
		<stop  offset="1" style="stop-color:#A27718"/>
		<a:midPointStop  offset="0" style="stop-color:#FECC0B"/>
		<a:midPointStop  offset="0.5" style="stop-color:#FECC0B"/>
		<a:midPointStop  offset="1" style="stop-color:#A27718"/>
	</linearGradient>
	<path id="path9103" fill="url(#path9103_1_)" d="M482.007,504.608c-21.207,1.182-84.368,32.61-97.348,45.656
		c-12.977,13.047-30.088-8.601-27.728-14.23c-8.258-0.89-16.521,5.341-15.338,9.488c1.183,4.148,10.026,15.412,13.566,16.601
		c-6.486,5.339-19.767,23.722-20.061,29.058c-0.293,5.337,5.9,10.674,8.85,10.674c11.211-16.899,25.073-27.573,30.682-30.241
		c-6.194,4.447-19.471,14.229-19.471,20.752c0,6.525,5.901,9.489,5.901,14.825c0,5.337-17.405,56.924-90.854,73.528
		c-28.612,4.741-42.187-24.313-48.969-32.021c-6.78-7.71-7.372-3.854-10.617-3.558c-3.246,0.295-26.551-12.748-41.889,12.451
		c6.488-0.891,17.107-2.668,21.83,5.337c2.36,3.263-4.723,3.85-4.131,7.706c0.591,3.854,23.009,24.607,34.219,25.498
		c-9.143-0.296-29.497,1.188-42.478-17.194c-3.834-4.447-5.604,5.632-17.699,6.521s-40.708,22.825-28.318,39.136
		c5.604-9.189,9.734-15.124,24.188-16.604c5.31-0.295-2.655,10.374,1.77,14.23c4.427,3.855,45.135,6.815,66.666,1.777
		c-19.176,5.041-42.479,9.488-44.247,14.825c-1.77,5.337,4.132,3.563,2.36,7.71c-1.771,4.147-33.922,26.38-0.592,55.735
		c-0.293-22.827-4.424-27.273,8.85-32.61c7.967-1.778,4.721,10.97,12.392,4.742c7.671-6.226,26.843-31.13,49.558-32.02
		c11.211,0,5.604,9.188,9.44,12.45c3.838,3.265,8.259,1.775,8.85,4.742c0.592,2.968-6.488,14.229-12.389,17.789
		c7.373,2.373,21.532,0.295,29.497-14.229c2.652-7.111,9.438-1.782,10.617-7.115c1.181-5.333-6.192-3.856-4.131-10.673
		c2.063-6.817,20.647-16.007,23.602-21.938c2.951-5.931,4.425-9.787,4.719-17.197c1.179,9.192,1.179,20.753,5.899,23.126
		c4.724,2.372,10.619-2.369,12.391-5.929c-0.294-3.558-10.028-15.718,4.719-24.313c-1.179,4.451-4.719,17.792,5.31,22.535
		c9.734,0.295,8.558-2.67,10.62-5.338c-3.246-7.114-6.491-18.978,6.488-25.498c-2.655,5.337-11.211,15.42,1.771,21.939
		c8.557,1.778,10.619-1.185,12.391-5.337c-4.719-5.931-1.479-21.347,5.898-24.904c-1.77,5.042-3.537,22.531,6.489,23.126
		c13.567-1.777,9.145-2.072,13.567-7.115c-1.771-6.227-2.948-8.895,0.592-14.824c3.54-5.933,20.057-21.646,31.267-23.125
		c-11.504-10.97-3.534-10.67-2.946-20.752c0.588-10.083-8.264-8.896-5.901-20.162c2.361-11.27,18.878-20.752,94.984-52.771
		C541.593,515.872,503.243,503.426,482.007,504.608z"/>
	
		<linearGradient id="path9105_1_" gradientUnits="userSpaceOnUse" x1="553.7981" y1="374.2468" x2="596.0334" y2="374.2468" gradientTransform="matrix(1 0 0 1 -71.2002 157.1992)">
		<stop  offset="0" style="stop-color:#FECC0B"/>
		<stop  offset="1" style="stop-color:#A27718"/>
		<a:midPointStop  offset="0" style="stop-color:#FECC0B"/>
		<a:midPointStop  offset="0.5" style="stop-color:#FECC0B"/>
		<a:midPointStop  offset="1" style="stop-color:#A27718"/>
	</linearGradient>
	<path id="path9105" fill="url(#path9105_1_)" d="M524.485,554.419c-10.325-15.12-24.188-31.428-41.887-32.909
		c8.553-7.115,7.37-8.893,12.092-12.747C499.41,504.904,528.319,540.78,524.485,554.419z"/>
	
		<linearGradient id="path9107_1_" gradientUnits="userSpaceOnUse" x1="109.1082" y1="444.9128" x2="801.5989" y2="444.9128" gradientTransform="matrix(1 0 0 1 -71.2002 157.1992)">
		<stop  offset="0" style="stop-color:#FECC0B"/>
		<stop  offset="1" style="stop-color:#A27718"/>
		<a:midPointStop  offset="0" style="stop-color:#FECC0B"/>
		<a:midPointStop  offset="0.5" style="stop-color:#FECC0B"/>
		<a:midPointStop  offset="1" style="stop-color:#A27718"/>
	</linearGradient>
	<path id="path9107" fill="url(#path9107_1_)" d="M643.753,342.387l14.823-14.124c0,0,40.536,42.186,41.864,50.636
		c8.85-3.56,26.991-5.337,28.761,2.668c1.771,8.005,1.771,16.01-1.327,19.565c-5.753-1.334-9.291-16.452-22.122-0.442
		c-0.442,4.447-1.328,8.895,0.44,12.008c1.771,3.112,21.239-9.34,23.009,5.781c1.771,15.12-2.653,15.563-7.08,18.678
		c-3.98-4.892-12.831-8.895-16.37-0.89c-3.54,8.005,1.771,8.005,5.311,11.118c3.54,3.111,10.619,5.779,9.292,10.229
		s-8.85,11.118-11.505,16.011c-2.654,4.894-6.639-17.787-18.144-8.448c-11.504,9.339-29.646,38.245-91.593,34.688
		c11.063,12.452,19.912,4.895,23.009,8.896c3.1,4.003,5.753,20.899-22.123,11.563c3.099,17.789,18.143,8.896,23.896,12.897
		c2.212,7.113-5.312,22.086-26.991,7.113c-0.442,4.004,12.538,24.164,26.991,12.452c5.31,8.744,4.131,30.392-27.436,10.229
		c16.521,9.783,33.334,22.531,42.92,29.796c9.587,7.265,7.522-5.188,31.416,3.113c17.699,12.896,11.507,34.393,46.02,43.582
		c-3.833,10.969-22.417,18.383-40.267,1.776c6.345,9.19,10.472,22.236,36.727,22.683c12.39,13.489-7.359,31.836-40.396,1.3
		c2.361,4.15,30.662,26.718,39.954,28.052c5.161,7.562-2.506,33.354-38.053-3.113c7.815,9.784,23.451,37.651,36.283,32.021
		c2.804,13.047-2.804,31.725-35.841-1.334c13.863,15.271,15.93,11.118,19.469,20.901c3.54,9.782-7.079,23.421,11.063,40.47
		c3.393,4.003-8.405,8.45-9.732,12.896c-1.328,4.447-0.442,27.868-11.505,28.462c-3.982-13.046-2.212-17.192-5.752-20.899
		c-6.194,0.738-10.028-6.967-13.274-9.339c-3.246-2.373-27.728,28.462-15.486,46.25c-6.638,7.561-7.521,5.78-14.603,4.003
		c-7.079-1.779,2.655,28.313,11.063,32.02c-5.459,1.039-30.235,1.63-35.396-36.911c-1.034-5.931-3.982-0.443-3.54-7.116
		c0.441-6.67,14.309-26.388,18.142-30.685c-12.683,7.854-37.759,27.127-41.148,30.685c-3.393,3.561-11.063-4.002-15.044-7.113
		c-3.982-3.113-18.144,24.607-10.62,32.02c-9.292-7.41-19.911-34.393,4.425-55.145c4.574-6.521-2.654-6.229,5.753-11.118
		c8.407-4.893,33.922-6.076,39.38-9.783c-4.867-1.039-31.709,1.038-34.955-0.445c-3.246-1.481-6.638-7.56-6.193-10.673
		c0.441-3.111-19.471,8.896-18.584,15.12c-3.54-2.373-12.98-29.352,23.45-36.911c4.573-4.597-0.886-7.116,6.639-7.561
		c7.521-0.445,43.806,20.013,51.77,4.447c7.966-15.565,15.78-86.275-28.316-101.396c-29.939-10.673-35.25-11.563-38.938-7.561
		c-3.688,4.003-7.228,32.169,2.213,35.133c0.294,4.447-27.14,6.82-23.009-18.233c-6.193,7.563-18.584,6.077-24.778-8.448
		c7.671,0,17.107,0.595,23.451-11.563s-6.194-38.246-11.505-56.924c-5.31-18.68-7.521-30.241-11.505-38.69
		c-3.98-8.45-23.451-35.133-98.672-57.813c-75.223-22.683-61.505-25.351-63.717-27.128c-2.214-1.778,17.992-36.174,7.078-47.587
		c-5.017,3.707,1.328,8.896,0,14.678c-1.326,5.781-9.733,12.896-9.733,19.123c0,6.226,2.655,17.64,1.771,20.457
		c-2.063,2.815-6.488,5.484-11.063,4.446c-5.752-1.778-9.292-8.449-9.292-16.011c0-7.561,9.439-22.977,7.521-29.352
		c-3.393,12.602-15.931,23.125-15.046,29.796c0.888,6.671,3.394,15.12,3.1,17.344c-0.886,2.818-7.966,5.486-12.832,4.447
		c-24.63-16.159,3.688-28.019-3.098-44.916c-3.834,20.457-23.895,25.794-13.718,42.69c-2.507,4.743-5.16,8.007-11.505,6.673
		c-26.99-7.855,4.867-28.019-3.097-41.805c-3.246,19.719-25.664,28.313-15.487,42.692c-3.54,4.003-11.354,9.339-18.142,4.447
		c-9.734-7.267,10.62-27.724,6.194-36.022c-8.26,14.825-24.188,23.421-15.931,39.58c-4.425,4.003-14.158,11.118-18.584,2.224
		c-4.425-8.894,6.194-20.16,0.886-28.018c-7.672,6.077-5.311,22.681-12.832,23.126c-7.521,0.444-19.91,1.038-29.202,8.005
		c-9.292,6.966-0.442,14.676-3.54,16.899c-3.1,2.223-6.194,0-9.734,1.334s-2.212,13.637-20.354,10.673
		c3.98-6.228,6.932-8.601,8.405-12.896c-5.604-4.597-7.964-10.522-9.732-15.563c-44.541,11.856-33.037,20.457-38.054,22.681
		c-5.017,2.225-9.292-3.558-15.044-4.892c-5.754-1.334-11.8,17.192-11.063,26.236c-6.046-1.63-27.285-22.09-4.425-42.246
		c5.752-5.933-4.426-4.447,1.771-9.784c6.194-5.337,33.188-10.971,37.61-12.896c-7.08-1.039-42.035,4.002-50.442-0.89
		c-8.406-4.894-5.753-11.563-7.965-13.342c-2.212-1.779-14.159,7.266-19.911,13.785c-5.753-8.006-1.919-32.021,21.682-36.021
		c9.145-1.63-0.293-8.154,11.063-8.005c11.356,0.147,7.521,14.081,50.442,16.454c-18.732-8.896-39.382-15.564-38.496-24.904
		c0.886-9.339,3.54-4.742,5.311-8.005c-2.063-3.854-21.532-6.82-28.318-5.337c2.948-7.709,24.188-23.42,43.362-12.452
		c3.834,2.669,4.426-4.446,8.407-3.56c3.982,0.892,20.796,47.143,58.407,42.251c129.938-36.022,112.534-67.973,136.428-72.898
		c15.342,3.376,109.31,15.12,135.694,5.301c25.223-10.229,90.267,120.074,165.045,115.184
		C684.071,470.066,711.01,398.422,643.753,342.387z"/>
	
		<linearGradient id="path9109_1_" gradientUnits="userSpaceOnUse" x1="338.2615" y1="90.0603" x2="549.8821" y2="90.0603" gradientTransform="matrix(1 0 0 1 -71.2002 157.1992)">
		<stop  offset="0" style="stop-color:#FECC0B"/>
		<stop  offset="1" style="stop-color:#A27718"/>
		<a:midPointStop  offset="0" style="stop-color:#FECC0B"/>
		<a:midPointStop  offset="0.5" style="stop-color:#FECC0B"/>
		<a:midPointStop  offset="1" style="stop-color:#A27718"/>
	</linearGradient>
	<path id="path9109" fill="url(#path9109_1_)" d="M343.656,102.58l108.852,56.33c0,0,3.536,19.863-1.185,24.904
		c-4.719,5.041-24.776-14.825-24.776-14.825s29.501,29.646,40.414,13.637c5.31,6.229,6.192,10.673,4.425,13.046
		c-1.771,2.373-21.243,15.121-43.069-3.558c7.08,6.521,32.449,30.241,47.494,21.94c1.179,8.005,0,15.416-6.195,16.604
		c-6.192,1.188-30.97-6.521-37.462-12.452c7.374,6.228,27.137,25.498,43.657,22.235c1.77,12.157,0.294,17.789-5.019,17.789
		c-5.31,0-27.136-6.82-37.462-13.938c7.967,7.71,31.565,26.685,44.248,22.83c2.063,9.488,1.479,16.604-3.834,18.084
		c-5.31,1.479-34.517-16.897-41.89-16.306c5.9,7.116,27.144,30.241,43.66,29.352c1.179,13.344-5.312,37.063-40.414,1.483
		c23.6,20.457,20.354,49.215,39.823,42.693c-0.294,8.3-12.098,46.845-44.842-6.82c10.917,20.162,1.475,37.651,19.472,49.809
		c-43.065,8.896-31.271-35.873-41.594-39.729c4.132,14.229-14.752,29.352,5.311,44.767c-17.108,1.484-46.313,8.005-29.795-50.993
		c-9.734,24.018-21.239,31.428-7.08,52.479c-48.378-4.152-4.718-45.956-21.238-57.813c5.312,21.349-29.497,26.979-14.453,51.883
		c-39.23-14.524-10.026-27.866-6.785-49.809c-15.636,24.608-37.461,9.783-66.664,34.983c-3.834-48.325,50.737-30.241,58.111-51.883
		c-7.965,7.113-38.053,23.424-36.281-13.639c36.578,8.601,26.552-19.269,32.447-28.163c5.897-8.894,13.568-5.931,19.175-19.271
		c1.479,0.295,2.361,2.668,3.54,6.227c1.181,3.56,0.594,29.058,25.958,29.058c25.366,0,26.551-32.614,26.551-44.474
		c0-11.856-2.655-44.177-27.143-44.177c-24.482,0-21.536,25.199-28.022,28.758c-5.9-2.669-2.655-11.268-9.146-16.604
		s-7.671,0.89-10.619-2.074c-2.947-2.964-6.78-15.415-4.128-19.271c2.655-3.853,17.699-10.378,17.699-10.378
		s-15.338,8.006-18.584,7.115c-3.246-0.889-14.453-13.341-14.453-13.341s21.533-40.32,21.533-42.988c0-2.669-2.655-4.743-2.361-7.71
		S337.759,102.285,343.656,102.58z"/>
	
		<radialGradient id="path9111_1_" cx="423.1897" cy="-13.3337" r="12.4639" gradientTransform="matrix(1 0 0 1 -71.2002 157.1992)" gradientUnits="userSpaceOnUse">
		<stop  offset="0" style="stop-color:#FECC0B"/>
		<stop  offset="1" style="stop-color:#A27718"/>
		<a:midPointStop  offset="0" style="stop-color:#FECC0B"/>
		<a:midPointStop  offset="0.5" style="stop-color:#FECC0B"/>
		<a:midPointStop  offset="1" style="stop-color:#A27718"/>
	</radialGradient>
	<path id="path9111" fill="url(#path9111_1_)" d="M338.493,132.526c15.044,2.668,17.699,17.344,26.991,18.233
		c-7.965,1.334-12.832,2.224-20.354,4.445c-3.539-3.559-1.493-19.506,2.046-19.506"/>
	
		<linearGradient id="path9113_1_" gradientUnits="userSpaceOnUse" x1="329.1951" y1="78.3503" x2="462.6467" y2="78.3503" gradientTransform="matrix(1 0 0 1 -71.2002 157.1992)">
		<stop  offset="0" style="stop-color:#FECC0B"/>
		<stop  offset="1" style="stop-color:#A27718"/>
		<a:midPointStop  offset="0" style="stop-color:#FECC0B"/>
		<a:midPointStop  offset="0.5" style="stop-color:#FECC0B"/>
		<a:midPointStop  offset="1" style="stop-color:#A27718"/>
	</linearGradient>
	<path id="path9113" fill="url(#path9113_1_)" d="M295.281,203.68c-51.032,0-48.379,54.551,0,54.551
		c26.255,0,30.088-16.305,91.741,9.188c2.361-3.558,2.655-4.445,4.425-8.895c-18.29-23.125-74.928-21.346-95.573-21.346
		C275.225,237.179,288.495,212.874,295.281,203.68z"/>
	
		<linearGradient id="path9115_1_" gradientUnits="userSpaceOnUse" x1="414.511" y1="-70.6252" x2="586.2444" y2="-70.6252" gradientTransform="matrix(1 0 0 1 -71.2002 157.1992)">
		<stop  offset="0" style="stop-color:#FECC0B"/>
		<stop  offset="1" style="stop-color:#A27718"/>
		<a:midPointStop  offset="0" style="stop-color:#FECC0B"/>
		<a:midPointStop  offset="0.5" style="stop-color:#FECC0B"/>
		<a:midPointStop  offset="1" style="stop-color:#A27718"/>
	</linearGradient>
	<path id="path9115" fill="url(#path9115_1_)" d="M344.539,100.211l109.734,56.926c0.889,0.295,45.427-49.811,60.771-58.108
		c-4.427-4.742-20.063-11.269-28.91-5.337c-8.848-6.228-27.729-2.963-29.497,3.558c6.192,6.229,14.153,16.011,1.179,18.976
		c-10.322,1.777-0.294-7.41-8.259-14.23c-7.964-6.82-17.107,8.005-20.647-1.185c-3.54-9.19,13.274-12.748,17.699-8.303
		c5.016-1.481,4.421-16.309-2.952-20.752c1.185-4.15,4.724-35.873-25.366-16.01c-2.063-2.074-18.107-2.074-22.235,13.637
		c9.144,2.668,17.668,15.18,5.339,18.146c-10.041,2.417-4.669-8.021-12.008-12.219c-8.447-4.832-8.745,8.6-16.118-0.596
		c-7.374-9.191,7.857-12.45,11.99-8.895c5.017-3.263,6.193-19.272-8.26-23.125c0.296-5.931,3.246-21.94-17.697-26.684
		C361.356,42.098,337.759,95.465,344.539,100.211z"/>
	
		<linearGradient id="path9117_1_" gradientUnits="userSpaceOnUse" x1="469.4299" y1="-11.4973" x2="509.3391" y2="-11.4973" gradientTransform="matrix(1 0 0 1 -71.2002 157.1992)">
		<stop  offset="0" style="stop-color:#FECC0B"/>
		<stop  offset="1" style="stop-color:#A27718"/>
		<a:midPointStop  offset="0" style="stop-color:#FECC0B"/>
		<a:midPointStop  offset="0.5" style="stop-color:#FECC0B"/>
		<a:midPointStop  offset="1" style="stop-color:#A27718"/>
	</linearGradient>
	<path id="path9117" fill="url(#path9117_1_)" d="M398.23,139.936c14.751-8.896,60.471-26.979,29.204,22.234"/>
	
		<linearGradient id="path9119_1_" gradientUnits="userSpaceOnUse" x1="493.137" y1="-7.9558" x2="480.0491" y2="-7.9558" gradientTransform="matrix(1 0 0 1 -71.2002 157.1992)">
		<stop  offset="0" style="stop-color:#FECC0B"/>
		<stop  offset="1" style="stop-color:#A27718"/>
		<a:midPointStop  offset="0" style="stop-color:#FECC0B"/>
		<a:midPointStop  offset="0.5" style="stop-color:#FECC0B"/>
		<a:midPointStop  offset="1" style="stop-color:#A27718"/>
	</linearGradient>
	<path id="path9119" fill="url(#path9119_1_)" d="M408.849,146.757c7.965-5.337,15.93-1.481,12.096,7.411"/>
	
		<linearGradient id="path9121_1_" gradientUnits="userSpaceOnUse" x1="202.1741" y1="-22.8943" x2="216.0354" y2="-22.8943" gradientTransform="matrix(1 0 0 1 -71.2002 157.1992)">
		<stop  offset="0" style="stop-color:#F9F3F4"/>
		<stop  offset="1" style="stop-color:#999999"/>
		<a:midPointStop  offset="0" style="stop-color:#F9F3F4"/>
		<a:midPointStop  offset="0.5" style="stop-color:#F9F3F4"/>
		<a:midPointStop  offset="1" style="stop-color:#999999"/>
	</linearGradient>
	<path id="path9121" fill="url(#path9121_1_)" d="M130.974,163.062v-50.399c0,0,0-7.115,6.488-7.115s7.373,7.41,7.373,7.41v39.433
		C144.839,152.388,136.874,163.062,130.974,163.062z"/>
	
		<linearGradient id="path9123_1_" gradientUnits="userSpaceOnUse" x1="216.0393" y1="-22.8948" x2="231.6741" y2="-22.8948" gradientTransform="matrix(1 0 0 1 -71.2002 157.1992)">
		<stop  offset="0" style="stop-color:#F9F3F4"/>
		<stop  offset="1" style="stop-color:#999999"/>
		<a:midPointStop  offset="0" style="stop-color:#F9F3F4"/>
		<a:midPointStop  offset="0.5" style="stop-color:#F9F3F4"/>
		<a:midPointStop  offset="1" style="stop-color:#999999"/>
	</linearGradient>
	<path id="path9123" fill="url(#path9123_1_)" d="M144.839,112.958c0,0,2.654-8.005,8.556-8.005c5.9,0,7.079,3.561,7.079,7.116
		s0,36.762,0,36.762s-7.67,11.861-14.75,14.825C145.724,154.168,144.839,112.958,144.839,112.958z"/>
	
		<linearGradient id="path9125_1_" gradientUnits="userSpaceOnUse" x1="232.262" y1="-25.4519" x2="248.1936" y2="-25.4519" gradientTransform="matrix(1 0 0 1 -71.2002 157.1992)">
		<stop  offset="0" style="stop-color:#F9F3F4"/>
		<stop  offset="1" style="stop-color:#999999"/>
		<a:midPointStop  offset="0" style="stop-color:#F9F3F4"/>
		<a:midPointStop  offset="0.5" style="stop-color:#F9F3F4"/>
		<a:midPointStop  offset="1" style="stop-color:#999999"/>
	</linearGradient>
	<path id="path9125" fill="url(#path9125_1_)" d="M161.062,110.734c0,0,0-8.896,7.08-8.896c7.079,0,8.852,8.896,8.852,8.896v35.133
		c0,0-3.1,13.342-15.71,15.789C161.285,146.757,161.062,110.734,161.062,110.734z"/>
	
		<linearGradient id="path9127_1_" gradientUnits="userSpaceOnUse" x1="247.3059" y1="-27.5642" x2="262.7932" y2="-27.5642" gradientTransform="matrix(1 0 0 1 -71.2002 157.1992)">
		<stop  offset="0" style="stop-color:#F9F3F4"/>
		<stop  offset="1" style="stop-color:#999999"/>
		<a:midPointStop  offset="0" style="stop-color:#F9F3F4"/>
		<a:midPointStop  offset="0.5" style="stop-color:#F9F3F4"/>
		<a:midPointStop  offset="1" style="stop-color:#999999"/>
	</linearGradient>
	<path id="path9127" fill="url(#path9127_1_)" d="M176.106,108.956c0,0,3.54-7.561,7.965-7.561c4.427,0,7.522,3.558,7.522,7.561
		c0,4.002,0,37.356,0,37.356s-4.425,10.229-15.487,11.563C176.106,140.975,176.106,108.956,176.106,108.956z"/>
	<path id="path9129" fill="#FFFFFF" d="M201.327,140.531c-11.506,8.894-32.303,28.017-35.843,34.243"/>
	
		<linearGradient id="path9131_1_" gradientUnits="userSpaceOnUse" x1="278.2805" y1="-26.9719" x2="307.9241" y2="-26.9719" gradientTransform="matrix(1 0 0 1 -71.2002 157.1992)">
		<stop  offset="0" style="stop-color:#FECC0B"/>
		<stop  offset="1" style="stop-color:#A27718"/>
		<a:midPointStop  offset="0" style="stop-color:#FECC0B"/>
		<a:midPointStop  offset="0.5" style="stop-color:#FECC0B"/>
		<a:midPointStop  offset="1" style="stop-color:#A27718"/>
	</linearGradient>
	<path id="path9131" fill="url(#path9131_1_)" d="M209.292,64.708c3.98,0,17.922,0,22.124,0c4.201,0,1.105,9.34-0.888,10.229
		c0,3.111,0,44.472,0,44.472s6.195,3.561,6.195,14.231s-5.752,12.45-6.195,15.563c-0.44,3.112,0,25.128,0,33.798
		c1.553,3.113,4.04,6.074,2.271,12.745c-9.734,0-18.199,0-23.066,0c-1.551-4.002,0.442-10.966,1.771-12.745
		c0-8.674,0.44-27.796,0.44-34.241c-3.318-4.447-4.865-9.341-4.865-15.564c0-6.227,3.098-12.729,4.865-14.507
		c0-2.448,0-39.023,0-43.026C209.073,74.328,206.861,64.708,209.292,64.708z"/>
	
		<linearGradient id="path9133_1_" gradientUnits="userSpaceOnUse" x1="211.6033" y1="40.1658" x2="268.4612" y2="40.1658" gradientTransform="matrix(1 0 0 1 -71.2002 157.1992)">
		<stop  offset="0" style="stop-color:#FECC0B"/>
		<stop  offset="1" style="stop-color:#A27718"/>
		<a:midPointStop  offset="0" style="stop-color:#FECC0B"/>
		<a:midPointStop  offset="0.5" style="stop-color:#FECC0B"/>
		<a:midPointStop  offset="1" style="stop-color:#A27718"/>
	</linearGradient>
	<path id="path9133" fill="url(#path9133_1_)" d="M142.92,188.34c-3.939,2.642-2.654,16.681-0.225,18.015
		c2.433,1.334,51.327,2.003,53.1,0c1.77-2.003,2.212-16.01-0.226-17.789C193.136,186.785,145.575,186.56,142.92,188.34z"/>
	
		<linearGradient id="path9135_1_" gradientUnits="userSpaceOnUse" x1="215.6018" y1="148.9978" x2="304.6213" y2="148.9978" gradientTransform="matrix(1 0 0 1 -71.2002 157.1992)">
		<stop  offset="0" style="stop-color:#FECC0B"/>
		<stop  offset="1" style="stop-color:#A27718"/>
		<a:midPointStop  offset="0" style="stop-color:#FECC0B"/>
		<a:midPointStop  offset="0.5" style="stop-color:#FECC0B"/>
		<a:midPointStop  offset="1" style="stop-color:#A27718"/>
	</linearGradient>
	<path id="path9135" fill="url(#path9135_1_)" d="M207.745,264.386c2.711,0.986,8.85,16.897,9.732,18.457
		c0.885,1.559,15.486,11.785,15.931,13.563c0.441,1.779-10.844,15.79-12.391,16.234c-1.547,0.442-15.045-2.895-17.037-1.779
		c-1.993,1.114-20.131,36.016-21.682,37.129s-31.416-13.563-33.629-15.563c-2.212-1.999-1.327-26.907-1.992-28.019
		c-0.666-1.109-2.655-6.45-2.213-8.895c0.441-2.445,44.913-3.782,46.464-4.894c1.551-1.108-0.442-10.229,1.108-12.229
		C193.587,276.39,205.31,263.497,207.745,264.386z"/>
	
		<linearGradient id="path9137_1_" gradientUnits="userSpaceOnUse" x1="261.5154" y1="671.322" x2="325.1399" y2="671.322" gradientTransform="matrix(1 0 0 1 -71.2002 157.1992)">
		<stop  offset="0" style="stop-color:#FECC0B"/>
		<stop  offset="1" style="stop-color:#A27718"/>
		<a:midPointStop  offset="0" style="stop-color:#FECC0B"/>
		<a:midPointStop  offset="0.5" style="stop-color:#FECC0B"/>
		<a:midPointStop  offset="1" style="stop-color:#A27718"/>
	</linearGradient>
	<path id="path9137" fill="url(#path9137_1_)" d="M238.495,777.81c-15.014-0.971-12.832-26.683,0-26.683s19.469,9.339,12.832,26.236
		c-6.639,16.899-26.551,46.695-11.506,59.147c-8.85,2.668-23.45,6.226-32.742,44.916c14.603,0,10.62,28.462-6.639,24.015
		c-17.257-4.447-7.521-22.233-6.193-26.683c1.328-4.447,25.664-49.811,12.832-59.592C211.062,817.39,225.663,816.056,238.495,777.81
		z"/>
	
		<linearGradient id="path9139_1_" gradientUnits="userSpaceOnUse" x1="325.3728" y1="-101.9978" x2="386.696" y2="-101.9978" gradientTransform="matrix(1 0 0 1 -71.2002 157.1992)">
		<stop  offset="0" style="stop-color:#F9F3F4"/>
		<stop  offset="1" style="stop-color:#999999"/>
		<a:midPointStop  offset="0" style="stop-color:#F9F3F4"/>
		<a:midPointStop  offset="0.5" style="stop-color:#F9F3F4"/>
		<a:midPointStop  offset="1" style="stop-color:#999999"/>
	</linearGradient>
	<path id="path9139" fill="url(#path9139_1_)" d="M286.3,75.493c-6.931,16.75-33.479,8.449-19.469-11.118
		c-21.09-4.149-13.719-30.238,6.638-22.681c-7.671-21.197,29.794-20.901,22.123,0c19.176-13.191,28.61,16.75,9.292,21.347
		C322.435,76.532,293.232,91.947,286.3,75.493z"/>
	
		<radialGradient id="circle9141_1_" cx="356.321" cy="-101.5691" r="10.7959" gradientTransform="matrix(1 0 0 1 -71.2002 157.1992)" gradientUnits="userSpaceOnUse">
		<stop  offset="0" style="stop-color:#F9F3F4"/>
		<stop  offset="1" style="stop-color:#999999"/>
		<a:midPointStop  offset="0" style="stop-color:#F9F3F4"/>
		<a:midPointStop  offset="0.5" style="stop-color:#F9F3F4"/>
		<a:midPointStop  offset="1" style="stop-color:#999999"/>
	</radialGradient>
	<ellipse id="circle9141" fill="url(#circle9141_1_)" cx="285.121" cy="55.63" rx="10.769" ry="10.823"/>
	
		<linearGradient id="path9143_1_" gradientUnits="userSpaceOnUse" x1="122.0876" y1="-98.1467" x2="202.825" y2="-98.1467" gradientTransform="matrix(1 0 0 1 -71.2002 157.1992)">
		<stop  offset="0" style="stop-color:#F9F3F4"/>
		<stop  offset="1" style="stop-color:#999999"/>
		<a:midPointStop  offset="0" style="stop-color:#F9F3F4"/>
		<a:midPointStop  offset="0.5" style="stop-color:#F9F3F4"/>
		<a:midPointStop  offset="1" style="stop-color:#999999"/>
	</linearGradient>
	<path id="path9143" fill="url(#path9143_1_)" d="M81.715,49.255c-12.981-6.227-22.124-20.752-20.063-23.421
		c2.063-2.668,23.602,9.488,23.602,20.162c0,10.673,11.211,13.341,10.914,0c-0.298-13.342,13.865-26.089,17.698-23.72
		c3.834,2.369-2.654,22.531-15.046,26.683c-3.834,2.373-3.834,12.748,2.361,8.602c6.194-4.148,31.858,8.3,30.382,13.046
		c-1.476,4.746-26.549,0.296-32.15-9.488c-7.079-6.82-10.913-1.481-5.9,4.742c5.013,6.227,6.488,29.646,0.294,30.241
		c-6.195,0.594-10.032-18.385-5.017-29.354c5.017-10.969,0-11.563-7.373-3.853c-7.965,7.709-28.318,15.714-30.382,11.563
		c-2.064-4.15,17.99-17.493,28.316-15.715C89.679,60.522,81.715,49.255,81.715,49.255z"/>
	
		<linearGradient id="path9145_1_" gradientUnits="userSpaceOnUse" x1="130.3728" y1="-101.9978" x2="191.6975" y2="-101.9978" gradientTransform="matrix(1 0 0 1 -71.2002 157.1992)">
		<stop  offset="0" style="stop-color:#F9F3F4"/>
		<stop  offset="1" style="stop-color:#999999"/>
		<a:midPointStop  offset="0" style="stop-color:#F9F3F4"/>
		<a:midPointStop  offset="0.5" style="stop-color:#F9F3F4"/>
		<a:midPointStop  offset="1" style="stop-color:#999999"/>
	</linearGradient>
	<path id="path9145" fill="url(#path9145_1_)" d="M91.3,75.493c-6.931,16.75-33.479,8.449-19.469-11.118
		c-21.09-4.149-13.719-30.238,6.638-22.681c-7.671-21.197,29.794-20.901,22.123,0c19.176-13.191,28.613,16.75,9.293,21.347
		C127.435,76.532,98.232,91.947,91.3,75.493z"/>
	
		<radialGradient id="circle9147_1_" cx="161.321" cy="-101.5691" r="10.7959" gradientTransform="matrix(1 0 0 1 -71.2002 157.1992)" gradientUnits="userSpaceOnUse">
		<stop  offset="0" style="stop-color:#F9F3F4"/>
		<stop  offset="1" style="stop-color:#999999"/>
		<a:midPointStop  offset="0" style="stop-color:#F9F3F4"/>
		<a:midPointStop  offset="0.5" style="stop-color:#F9F3F4"/>
		<a:midPointStop  offset="1" style="stop-color:#999999"/>
	</radialGradient>
	<ellipse id="circle9147" fill="url(#circle9147_1_)" cx="90.121" cy="55.63" rx="10.769" ry="10.823"/>
	
		<linearGradient id="path9149_1_" gradientUnits="userSpaceOnUse" x1="120.6106" y1="156.783" x2="201.3494" y2="156.783" gradientTransform="matrix(1 0 0 1 -71.2002 157.1992)">
		<stop  offset="0" style="stop-color:#F9F3F4"/>
		<stop  offset="1" style="stop-color:#999999"/>
		<a:midPointStop  offset="0" style="stop-color:#F9F3F4"/>
		<a:midPointStop  offset="0.5" style="stop-color:#F9F3F4"/>
		<a:midPointStop  offset="1" style="stop-color:#999999"/>
	</linearGradient>
	<path id="path9149" fill="url(#path9149_1_)" d="M80.238,304.186c-12.979-6.228-22.124-20.752-20.061-23.42
		c2.063-2.669,23.6,9.486,23.6,20.161c0,10.674,11.211,13.342,10.914,0c-0.298-13.344,13.865-26.091,17.698-23.722
		c3.834,2.37-2.654,22.531-15.044,26.686c-3.833,2.373-3.833,12.747,2.361,8.599c6.192-4.148,31.856,8.301,30.382,13.047
		c-1.478,4.746-26.548,0.295-32.151-9.489c-7.08-6.817-10.914-1.481-5.899,4.743c5.013,6.228,6.486,29.646,0.294,30.24
		c-6.195,0.595-10.032-18.383-5.018-29.351c5.018-10.971,0-11.563-7.374-3.854c-7.965,7.71-28.316,15.715-30.382,11.563
		c-2.063-4.151,17.992-17.493,28.318-15.717C88.201,315.454,80.238,304.186,80.238,304.186z"/>
	
		<linearGradient id="path9151_1_" gradientUnits="userSpaceOnUse" x1="128.8953" y1="152.9348" x2="190.2205" y2="152.9348" gradientTransform="matrix(1 0 0 1 -71.2002 157.1992)">
		<stop  offset="0" style="stop-color:#F9F3F4"/>
		<stop  offset="1" style="stop-color:#999999"/>
		<a:midPointStop  offset="0" style="stop-color:#F9F3F4"/>
		<a:midPointStop  offset="0.5" style="stop-color:#F9F3F4"/>
		<a:midPointStop  offset="1" style="stop-color:#999999"/>
	</linearGradient>
	<path id="path9151" fill="url(#path9151_1_)" d="M89.823,330.425c-6.932,16.75-33.479,8.45-19.47-11.115
		c-21.09-4.152-13.717-30.241,6.64-22.683c-7.673-21.195,29.794-20.9,22.124,0c19.175-13.19,28.61,16.749,9.292,21.348
		C125.957,331.464,96.754,346.88,89.823,330.425z"/>
	
		<radialGradient id="circle9153_1_" cx="159.8445" cy="153.363" r="10.7967" gradientTransform="matrix(1 0 0 1 -71.2002 157.1992)" gradientUnits="userSpaceOnUse">
		<stop  offset="0" style="stop-color:#F9F3F4"/>
		<stop  offset="1" style="stop-color:#999999"/>
		<a:midPointStop  offset="0" style="stop-color:#F9F3F4"/>
		<a:midPointStop  offset="0.5" style="stop-color:#F9F3F4"/>
		<a:midPointStop  offset="1" style="stop-color:#999999"/>
	</radialGradient>
	<ellipse id="circle9153" fill="url(#circle9153_1_)" cx="88.644" cy="310.562" rx="10.771" ry="10.823"/>
	
		<linearGradient id="path9155_1_" gradientUnits="userSpaceOnUse" x1="122.0876" y1="418.8533" x2="202.825" y2="418.8533" gradientTransform="matrix(1 0 0 1 -71.2002 157.1992)">
		<stop  offset="0" style="stop-color:#F9F3F4"/>
		<stop  offset="1" style="stop-color:#999999"/>
		<a:midPointStop  offset="0" style="stop-color:#F9F3F4"/>
		<a:midPointStop  offset="0.5" style="stop-color:#F9F3F4"/>
		<a:midPointStop  offset="1" style="stop-color:#999999"/>
	</linearGradient>
	<path id="path9155" fill="url(#path9155_1_)" d="M81.715,566.257c-12.981-6.228-22.124-20.752-20.063-23.423
		c2.063-2.668,23.602,9.489,23.602,20.162c0,10.675,11.211,13.344,10.914,0c-0.298-13.342,13.865-26.093,17.698-23.72
		c3.834,2.373-2.654,22.531-15.046,26.686c-3.834,2.372-3.834,12.745,2.361,8.599c6.194-4.151,31.858,8.297,30.382,13.043
		c-1.476,4.746-26.549,0.299-32.15-9.485c-7.079-6.818-10.913-1.481-5.9,4.743c5.013,6.228,6.488,29.646,0.294,30.24
		c-6.195,0.594-10.032-18.383-5.017-29.354c5.017-10.968,0-11.563-7.373-3.853c-7.965,7.706-28.318,15.711-30.382,11.563
		c-2.064-4.151,17.99-17.492,28.316-15.716C89.679,577.522,81.715,566.257,81.715,566.257z"/>
	
		<linearGradient id="path9157_1_" gradientUnits="userSpaceOnUse" x1="130.3728" y1="415.0037" x2="191.6975" y2="415.0037" gradientTransform="matrix(1 0 0 1 -71.2002 157.1992)">
		<stop  offset="0" style="stop-color:#F9F3F4"/>
		<stop  offset="1" style="stop-color:#999999"/>
		<a:midPointStop  offset="0" style="stop-color:#F9F3F4"/>
		<a:midPointStop  offset="0.5" style="stop-color:#F9F3F4"/>
		<a:midPointStop  offset="1" style="stop-color:#999999"/>
	</linearGradient>
	<path id="path9157" fill="url(#path9157_1_)" d="M91.3,592.493c-6.931,16.754-33.479,8.45-19.469-11.118
		c-21.09-4.146-13.719-30.238,6.638-22.681c-7.671-21.196,29.794-20.901,22.123,0c19.176-13.189,28.613,16.75,9.293,21.347
		C127.435,593.532,98.232,608.948,91.3,592.493z"/>
	
		<radialGradient id="circle9159_1_" cx="161.321" cy="415.4348" r="10.7959" gradientTransform="matrix(1 0 0 1 -71.2002 157.1992)" gradientUnits="userSpaceOnUse">
		<stop  offset="0" style="stop-color:#F9F3F4"/>
		<stop  offset="1" style="stop-color:#999999"/>
		<a:midPointStop  offset="0" style="stop-color:#F9F3F4"/>
		<a:midPointStop  offset="0.5" style="stop-color:#F9F3F4"/>
		<a:midPointStop  offset="1" style="stop-color:#999999"/>
	</radialGradient>
	<ellipse id="circle9159" fill="url(#circle9159_1_)" cx="90.121" cy="572.634" rx="10.769" ry="10.823"/>
	
		<linearGradient id="path9161_1_" gradientUnits="userSpaceOnUse" x1="317.0876" y1="418.8533" x2="397.825" y2="418.8533" gradientTransform="matrix(1 0 0 1 -71.2002 157.1992)">
		<stop  offset="0" style="stop-color:#F9F3F4"/>
		<stop  offset="1" style="stop-color:#999999"/>
		<a:midPointStop  offset="0" style="stop-color:#F9F3F4"/>
		<a:midPointStop  offset="0.5" style="stop-color:#F9F3F4"/>
		<a:midPointStop  offset="1" style="stop-color:#999999"/>
	</linearGradient>
	<path id="path9161" fill="url(#path9161_1_)" d="M276.715,566.257c-12.981-6.228-22.124-20.752-20.063-23.423
		c2.063-2.668,23.602,9.489,23.602,20.162c0,10.675,11.211,13.344,10.914,0c-0.298-13.342,13.863-26.093,17.696-23.72
		c3.834,2.373-2.652,22.531-15.044,26.686c-3.834,2.372-3.834,12.745,2.361,8.599c6.193-4.151,31.856,8.297,30.382,13.043
		s-26.549,0.299-32.15-9.485c-7.079-6.818-10.913-1.481-5.9,4.743c5.013,6.228,6.488,29.646,0.294,30.24
		c-6.195,0.594-10.032-18.383-5.017-29.354c5.017-10.968,0-11.563-7.373-3.853c-7.965,7.706-28.318,15.711-30.382,11.563
		c-2.064-4.151,17.99-17.492,28.316-15.716C284.679,577.522,276.715,566.257,276.715,566.257z"/>
	
		<linearGradient id="path9163_1_" gradientUnits="userSpaceOnUse" x1="325.3728" y1="415.0037" x2="386.696" y2="415.0037" gradientTransform="matrix(1 0 0 1 -71.2002 157.1992)">
		<stop  offset="0" style="stop-color:#F9F3F4"/>
		<stop  offset="1" style="stop-color:#999999"/>
		<a:midPointStop  offset="0" style="stop-color:#F9F3F4"/>
		<a:midPointStop  offset="0.5" style="stop-color:#F9F3F4"/>
		<a:midPointStop  offset="1" style="stop-color:#999999"/>
	</linearGradient>
	<path id="path9163" fill="url(#path9163_1_)" d="M286.3,592.493c-6.931,16.754-33.479,8.45-19.469-11.118
		c-21.09-4.146-13.719-30.238,6.638-22.681c-7.671-21.196,29.794-20.901,22.123,0c19.176-13.189,28.61,16.75,9.292,21.347
		C322.435,593.532,293.232,608.948,286.3,592.493z"/>
	
		<radialGradient id="circle9165_1_" cx="356.321" cy="415.4348" r="10.7959" gradientTransform="matrix(1 0 0 1 -71.2002 157.1992)" gradientUnits="userSpaceOnUse">
		<stop  offset="0" style="stop-color:#F9F3F4"/>
		<stop  offset="1" style="stop-color:#999999"/>
		<a:midPointStop  offset="0" style="stop-color:#F9F3F4"/>
		<a:midPointStop  offset="0.5" style="stop-color:#F9F3F4"/>
		<a:midPointStop  offset="1" style="stop-color:#999999"/>
	</radialGradient>
	<ellipse id="circle9165" fill="url(#circle9165_1_)" cx="285.121" cy="572.634" rx="10.769" ry="10.823"/>
	
		<linearGradient id="path9167_1_" gradientUnits="userSpaceOnUse" x1="429.0168" y1="624.6267" x2="509.7542" y2="624.6267" gradientTransform="matrix(1 0 0 1 -71.2002 157.1992)">
		<stop  offset="0" style="stop-color:#F9F3F4"/>
		<stop  offset="1" style="stop-color:#999999"/>
		<a:midPointStop  offset="0" style="stop-color:#F9F3F4"/>
		<a:midPointStop  offset="0.5" style="stop-color:#F9F3F4"/>
		<a:midPointStop  offset="1" style="stop-color:#999999"/>
	</linearGradient>
	<path id="path9167" fill="url(#path9167_1_)" d="M388.644,772.029c-12.98-6.226-22.124-20.752-20.06-23.42
		c2.063-2.669,23.6,9.488,23.6,20.161s11.211,13.342,10.913,0c-0.297-13.342,13.862-26.093,17.699-23.72
		s-2.655,22.531-15.044,26.684c-3.834,2.373-3.834,12.747,2.355,8.601c6.194-4.151,31.858,8.297,30.386,13.043
		c-1.472,4.745-26.549,0.299-32.153-9.485c-7.08-6.82-10.914-1.483-5.897,4.743c5.012,6.226,6.491,29.646,0.293,30.24
		c-6.194,0.595-10.031-18.385-5.016-29.354c5.016-10.968,0-11.563-7.373-3.853c-7.965,7.705-28.319,15.711-30.383,11.563
		c-2.063-4.15,17.993-17.493,28.317-15.715C396.609,783.299,388.644,772.029,388.644,772.029z"/>
	
		<linearGradient id="path9169_1_" gradientUnits="userSpaceOnUse" x1="437.303" y1="620.7781" x2="498.6272" y2="620.7781" gradientTransform="matrix(1 0 0 1 -71.2002 157.1992)">
		<stop  offset="0" style="stop-color:#F9F3F4"/>
		<stop  offset="1" style="stop-color:#999999"/>
		<a:midPointStop  offset="0" style="stop-color:#F9F3F4"/>
		<a:midPointStop  offset="0.5" style="stop-color:#F9F3F4"/>
		<a:midPointStop  offset="1" style="stop-color:#999999"/>
	</linearGradient>
	<path id="path9169" fill="url(#path9169_1_)" d="M398.23,798.267c-6.931,16.754-33.479,8.45-19.469-11.118
		c-21.091-4.146-13.717-30.24,6.637-22.68c-7.671-21.197,29.791-20.902,22.124,0c19.172-13.192,28.616,16.749,9.292,21.346
		C434.365,799.306,405.162,814.722,398.23,798.267z"/>
	
		<radialGradient id="circle9171_1_" cx="468.2502" cy="621.2087" r="10.7964" gradientTransform="matrix(1 0 0 1 -71.2002 157.1992)" gradientUnits="userSpaceOnUse">
		<stop  offset="0" style="stop-color:#F9F3F4"/>
		<stop  offset="1" style="stop-color:#999999"/>
		<a:midPointStop  offset="0" style="stop-color:#F9F3F4"/>
		<a:midPointStop  offset="0.5" style="stop-color:#F9F3F4"/>
		<a:midPointStop  offset="1" style="stop-color:#999999"/>
	</radialGradient>
	<ellipse id="circle9171" fill="url(#circle9171_1_)" cx="397.051" cy="778.408" rx="10.769" ry="10.823"/>
	
		<linearGradient id="path9173_1_" gradientUnits="userSpaceOnUse" x1="739.5715" y1="418.8533" x2="820.3118" y2="418.8533" gradientTransform="matrix(1 0 0 1 -71.2002 157.1992)">
		<stop  offset="0" style="stop-color:#F9F3F4"/>
		<stop  offset="1" style="stop-color:#999999"/>
		<a:midPointStop  offset="0" style="stop-color:#F9F3F4"/>
		<a:midPointStop  offset="0.5" style="stop-color:#F9F3F4"/>
		<a:midPointStop  offset="1" style="stop-color:#999999"/>
	</linearGradient>
	<path id="path9173" fill="url(#path9173_1_)" d="M699.197,566.257c-12.978-6.228-22.124-20.752-20.057-23.423
		c2.067-2.668,23.597,9.489,23.597,20.162c0,10.675,11.214,13.344,10.916,0c-0.297-13.342,13.862-26.093,17.699-23.72
		c3.838,2.373-2.654,22.531-15.044,26.686c-3.837,2.372-3.837,12.745,2.355,8.599c6.194-4.151,31.858,8.297,30.388,13.043
		c-1.474,4.746-26.549,0.299-32.155-9.485c-7.08-6.818-10.91-1.481-5.897,4.743c5.014,6.228,6.492,29.646,0.299,30.24
		c-6.194,0.594-10.031-18.383-5.021-29.354c5.021-10.968,0.004-11.563-7.369-3.853c-7.965,7.706-28.317,15.711-30.387,11.563
		c-2.066-4.151,17.997-17.492,28.319-15.716C707.158,577.522,699.197,566.257,699.197,566.257z"/>
	
		<linearGradient id="path9175_1_" gradientUnits="userSpaceOnUse" x1="747.8557" y1="415.0037" x2="809.1809" y2="415.0037" gradientTransform="matrix(1 0 0 1 -71.2002 157.1992)">
		<stop  offset="0" style="stop-color:#F9F3F4"/>
		<stop  offset="1" style="stop-color:#999999"/>
		<a:midPointStop  offset="0" style="stop-color:#F9F3F4"/>
		<a:midPointStop  offset="0.5" style="stop-color:#F9F3F4"/>
		<a:midPointStop  offset="1" style="stop-color:#999999"/>
	</linearGradient>
	<path id="path9175" fill="url(#path9175_1_)" d="M708.783,592.493c-6.935,16.754-33.48,8.45-19.469-11.118
		c-21.094-4.146-13.717-30.238,6.637-22.681c-7.667-21.196,29.792-20.901,22.124,0c19.173-13.189,28.616,16.75,9.292,21.347
		C744.924,593.532,715.72,608.948,708.783,592.493z"/>
	
		<radialGradient id="circle9177_1_" cx="778.8069" cy="415.4348" r="10.7957" gradientTransform="matrix(1 0 0 1 -71.2002 157.1992)" gradientUnits="userSpaceOnUse">
		<stop  offset="0" style="stop-color:#F9F3F4"/>
		<stop  offset="1" style="stop-color:#999999"/>
		<a:midPointStop  offset="0" style="stop-color:#F9F3F4"/>
		<a:midPointStop  offset="0.5" style="stop-color:#F9F3F4"/>
		<a:midPointStop  offset="1" style="stop-color:#999999"/>
	</radialGradient>
	<ellipse id="circle9177" fill="url(#circle9177_1_)" cx="707.607" cy="572.634" rx="10.769" ry="10.823"/>
	
		<linearGradient id="path9179_1_" gradientUnits="userSpaceOnUse" x1="664.8567" y1="100.7488" x2="745.5969" y2="100.7488" gradientTransform="matrix(1 0 0 1 -71.2002 157.1992)">
		<stop  offset="0" style="stop-color:#F9F3F4"/>
		<stop  offset="1" style="stop-color:#999999"/>
		<a:midPointStop  offset="0" style="stop-color:#F9F3F4"/>
		<a:midPointStop  offset="0.5" style="stop-color:#F9F3F4"/>
		<a:midPointStop  offset="1" style="stop-color:#999999"/>
	</linearGradient>
	<path id="path9179" fill="url(#path9179_1_)" d="M624.481,248.152c-12.977-6.226-22.123-20.752-20.057-23.421
		c2.065-2.668,23.597,9.489,23.597,20.162s11.215,13.342,10.917,0c-0.297-13.342,13.862-26.089,17.699-23.722
		c3.837,2.37-2.655,22.531-15.044,26.686c-3.838,2.373-3.838,12.747,2.355,8.599c6.194-4.146,31.858,8.301,30.388,13.046
		c-1.475,4.746-26.551,0.296-32.156-9.486c-7.079-6.82-10.909-1.483-5.896,4.741c5.014,6.228,6.491,29.646,0.297,30.24
		c-6.192,0.594-10.03-18.383-5.02-29.352c5.02-10.968,0.004-11.563-7.37-3.854c-7.964,7.709-28.318,15.715-30.386,11.563
		c-2.068-4.152,17.996-17.493,28.316-15.715C632.446,259.42,624.481,248.152,624.481,248.152z"/>
	
		<linearGradient id="path9181_1_" gradientUnits="userSpaceOnUse" x1="673.1428" y1="96.8992" x2="734.468" y2="96.8992" gradientTransform="matrix(1 0 0 1 -71.2002 157.1992)">
		<stop  offset="0" style="stop-color:#F9F3F4"/>
		<stop  offset="1" style="stop-color:#999999"/>
		<a:midPointStop  offset="0" style="stop-color:#F9F3F4"/>
		<a:midPointStop  offset="0.5" style="stop-color:#F9F3F4"/>
		<a:midPointStop  offset="1" style="stop-color:#999999"/>
	</linearGradient>
	<path id="path9181" fill="url(#path9181_1_)" d="M634.071,274.39c-6.935,16.75-33.481,8.448-19.469-11.118
		c-21.094-4.151-13.717-30.24,6.637-22.683c-7.667-21.194,29.791-20.899,22.124,0c19.172-13.189,28.616,16.75,9.292,21.349
		C670.206,275.429,641.005,290.845,634.071,274.39z"/>
	
		<radialGradient id="circle9183_1_" cx="704.092" cy="97.3289" r="10.7959" gradientTransform="matrix(1 0 0 1 -71.2002 157.1992)" gradientUnits="userSpaceOnUse">
		<stop  offset="0" style="stop-color:#F9F3F4"/>
		<stop  offset="1" style="stop-color:#999999"/>
		<a:midPointStop  offset="0" style="stop-color:#F9F3F4"/>
		<a:midPointStop  offset="0.5" style="stop-color:#F9F3F4"/>
		<a:midPointStop  offset="1" style="stop-color:#999999"/>
	</radialGradient>
	<ellipse id="circle9183" fill="url(#circle9183_1_)" cx="632.892" cy="254.528" rx="10.769" ry="10.823"/>
	
		<linearGradient id="path9185_1_" gradientUnits="userSpaceOnUse" x1="739.5715" y1="-98.1467" x2="820.3118" y2="-98.1467" gradientTransform="matrix(1 0 0 1 -71.2002 157.1992)">
		<stop  offset="0" style="stop-color:#F9F3F4"/>
		<stop  offset="1" style="stop-color:#999999"/>
		<a:midPointStop  offset="0" style="stop-color:#F9F3F4"/>
		<a:midPointStop  offset="0.5" style="stop-color:#F9F3F4"/>
		<a:midPointStop  offset="1" style="stop-color:#999999"/>
	</linearGradient>
	<path id="path9185" fill="url(#path9185_1_)" d="M699.197,49.255c-12.978-6.227-22.124-20.752-20.057-23.421
		c2.067-2.668,23.597,9.488,23.597,20.162c0,10.673,11.214,13.341,10.916,0c-0.297-13.342,13.862-26.089,17.699-23.72
		c3.838,2.369-2.654,22.531-15.044,26.683c-3.837,2.373-3.837,12.748,2.355,8.602c6.194-4.148,31.858,8.3,30.388,13.046
		c-1.474,4.746-26.549,0.296-32.155-9.488c-7.08-6.82-10.91-1.481-5.897,4.742c5.014,6.227,6.492,29.646,0.299,30.241
		c-6.194,0.594-10.031-18.385-5.021-29.354c5.021-10.969,0.004-11.563-7.369-3.853c-7.965,7.709-28.317,15.714-30.387,11.563
		c-2.066-4.15,17.997-17.493,28.319-15.715C707.158,60.522,699.197,49.255,699.197,49.255z"/>
	
		<linearGradient id="path9187_1_" gradientUnits="userSpaceOnUse" x1="747.8557" y1="-101.9978" x2="809.1809" y2="-101.9978" gradientTransform="matrix(1 0 0 1 -71.2002 157.1992)">
		<stop  offset="0" style="stop-color:#F9F3F4"/>
		<stop  offset="1" style="stop-color:#999999"/>
		<a:midPointStop  offset="0" style="stop-color:#F9F3F4"/>
		<a:midPointStop  offset="0.5" style="stop-color:#F9F3F4"/>
		<a:midPointStop  offset="1" style="stop-color:#999999"/>
	</linearGradient>
	<path id="path9187" fill="url(#path9187_1_)" d="M708.783,75.493c-6.935,16.75-33.48,8.449-19.469-11.118
		c-21.094-4.149-13.717-30.238,6.637-22.681c-7.667-21.197,29.792-20.901,22.124,0c19.173-13.191,28.616,16.75,9.292,21.347
		C744.924,76.532,715.72,91.947,708.783,75.493z"/>
	
		<radialGradient id="circle9189_1_" cx="778.8069" cy="-101.5691" r="10.7957" gradientTransform="matrix(1 0 0 1 -71.2002 157.1992)" gradientUnits="userSpaceOnUse">
		<stop  offset="0" style="stop-color:#F9F3F4"/>
		<stop  offset="1" style="stop-color:#999999"/>
		<a:midPointStop  offset="0" style="stop-color:#F9F3F4"/>
		<a:midPointStop  offset="0.5" style="stop-color:#F9F3F4"/>
		<a:midPointStop  offset="1" style="stop-color:#999999"/>
	</radialGradient>
	<ellipse id="circle9189" fill="url(#circle9189_1_)" cx="707.607" cy="55.63" rx="10.769" ry="10.823"/>
</g>
</svg>
